<svg id="SvgjsSvg1021" width="256" height="256" xmlns="http://www.w3.org/2000/svg" version="1.1" xmlns:xlink="http://www.w3.org/1999/xlink" xmlns:svgjs="http://svgjs.com/svgjs"><defs id="SvgjsDefs1022"></defs><g id="SvgjsG1023"><svg xmlns="http://www.w3.org/2000/svg" enable-background="new 0 0 64 64" viewBox="0 0 64 64" width="256" height="256"><path fill="#595bd4" d="M30.8,18l-13,10.4c-0.5,0.4-0.8,1-0.8,1.6l2,15c0,1.1,0.9,2,2,2h5c1.1,0,2-0.9,2-2l0-3.8c0-2.1,1.5-4,3.6-4.2c2.4-0.2,4.4,1.6,4.4,4v4c0,1.1,0.9,2,2,2h5c1.1,0,2-0.9,2-2l2-15c0-0.6-0.3-1.2-0.8-1.6L33.2,18C32.5,17.4,31.5,17.4,30.8,18z" class="color4D4D4D svgShape"></path></svg></g></svg>